<svg width="120.04" height="29.76" viewBox="0 0 120.04 29.76" xmlns="http://www.w3.org/2000/svg"><g id="svgGroup" stroke-linecap="round" fill-rule="nonzero" font-size="9pt" stroke="#000" stroke-width="0.25mm" fill="#ffffff" style="stroke:#000;stroke-width:0.25mm;fill:#ffffff"><path d="M 73.12 29.08 L 72.52 25.68 L 85.24 23.6 L 86.96 7.28 L 77.64 3.6 L 64.8 4.92 L 64.52 1.56 L 78.24 0.2 L 90.96 4.96 L 88.6 26.52 L 73.12 29.08 Z M 32.08 29.72 L 29.76 14.36 L 33.16 13.84 L 35 26.44 L 42.2 26.24 L 42.92 11.64 L 29.36 11.88 L 29.4 8.72 L 46.52 8.44 L 45.44 29.28 L 32.08 29.72 Z M 20.2 29.6 L 20.2 14.72 L 5.68 15.76 L 5.44 12.32 L 20.2 11.36 L 20.16 0.12 L 23.84 0.12 L 23.84 29.6 L 20.2 29.6 Z M 54.28 29.76 L 54.28 12.36 L 49.84 12.76 L 49.56 9.52 L 54.28 9.08 L 54.28 1.16 L 57.76 1.16 L 57.76 8.8 L 63.08 8.32 L 63.36 11.56 L 57.76 12.04 L 57.76 26.08 L 62.68 25.4 L 62.96 28.72 L 54.28 29.76 Z M 103.48 17.32 L 101.44 14.52 L 114.68 5.16 L 96.04 3.32 L 96.6 0 L 118.8 2.24 L 120.04 5.44 L 103.48 17.32 Z M 102.96 29.52 L 102.48 26.12 L 116.04 23.92 L 115.88 20.04 L 107.8 17.88 L 108.88 14.52 L 119.28 17.24 L 119.64 26.8 L 102.96 29.52 Z M 0.8 29.6 L 0 0.12 L 3.68 0.12 L 4.44 29.6 L 0.8 29.6 Z M 97.6 29.64 L 96.8 5.68 L 100.48 5.68 L 101.28 29.64 L 97.6 29.64 Z M 67.68 29.6 L 66.88 6.44 L 70.52 6.44 L 71.32 29.6 L 67.68 29.6 Z" vector-effect="non-scaling-stroke"/></g></svg>