<svg width="219.7" height="35.501" viewBox="0 0 219.7 35.501" xmlns="http://www.w3.org/2000/svg"><g id="svgGroup" stroke-linecap="round" fill-rule="evenodd" font-size="9pt" stroke="#dedddd" stroke-width="0.25mm" fill="#000" style="stroke:#dedddd;stroke-width:0.25mm;fill:#000"><path d="M 207.3 35 L 187.8 35 L 187.8 0 L 206.55 0 A 22.69 22.69 0 0 1 209.226 0.149 Q 211.177 0.381 212.7 0.975 A 9.678 9.678 0 0 1 214.709 2.028 A 7.389 7.389 0 0 1 216.525 3.8 A 6.973 6.973 0 0 1 217.707 6.67 A 9.5 9.5 0 0 1 217.85 8.35 A 8.939 8.939 0 0 1 217.51 10.875 A 6.9 6.9 0 0 1 215.625 13.975 A 8.705 8.705 0 0 1 213.009 15.663 Q 211.368 16.366 209.2 16.65 L 209.15 16.1 A 18.799 18.799 0 0 1 211.739 16.424 Q 213.118 16.7 214.272 17.186 A 10.699 10.699 0 0 1 214.9 17.475 A 9.417 9.417 0 0 1 217.052 18.931 A 7.911 7.911 0 0 1 218.475 20.65 A 8.124 8.124 0 0 1 219.513 23.403 A 11.225 11.225 0 0 1 219.7 25.5 A 10.918 10.918 0 0 1 219.494 27.669 A 8.512 8.512 0 0 1 218.875 29.575 Q 218.05 31.35 216.475 32.55 A 9.911 9.911 0 0 1 214.412 33.746 A 13.239 13.239 0 0 1 212.6 34.375 Q 210.3 35 207.3 35 Z M 151.85 35 L 135.5 35 L 135.5 0 L 151.85 0 A 24.272 24.272 0 0 1 156.899 0.508 A 20.671 20.671 0 0 1 159.675 1.3 A 19.581 19.581 0 0 1 164.13 3.572 A 17.429 17.429 0 0 1 165.85 4.925 Q 168.45 7.25 169.9 10.45 Q 171.35 13.65 171.35 17.5 Q 171.35 21.3 169.9 24.525 Q 168.45 27.75 165.85 30.075 A 18.326 18.326 0 0 1 160.875 33.223 A 21.51 21.51 0 0 1 159.675 33.7 A 21.733 21.733 0 0 1 154.06 34.909 A 26.143 26.143 0 0 1 151.85 35 Z M 136.6 0.55 L 136.6 34.35 L 136.1 33.9 L 151.6 33.9 A 23.886 23.886 0 0 0 156.295 33.455 A 20.146 20.146 0 0 0 159.05 32.7 Q 162.45 31.5 164.95 29.3 Q 167.45 27.1 168.825 24.1 Q 170.2 21.1 170.2 17.5 A 16.417 16.417 0 0 0 169.608 13.034 A 14.614 14.614 0 0 0 168.825 10.9 Q 167.45 7.9 164.95 5.7 A 17.453 17.453 0 0 0 159.988 2.658 A 20.321 20.321 0 0 0 159.05 2.3 A 21.16 21.16 0 0 0 153.827 1.195 A 25.607 25.607 0 0 0 151.6 1.1 L 136.05 1.1 L 136.6 0.55 Z M 61.605 35.116 A 26.18 26.18 0 0 0 66.2 35.5 A 25.667 25.667 0 0 0 70.001 35.229 A 19.43 19.43 0 0 0 75.2 33.725 A 17.909 17.909 0 0 0 76.936 32.82 A 14.334 14.334 0 0 0 81.325 28.85 Q 83.55 25.75 83.55 21.85 Q 83.55 17.9 81.325 14.825 A 13.825 13.825 0 0 0 78.868 12.226 A 16.627 16.627 0 0 0 75.2 9.975 Q 71.3 8.2 66.2 8.2 Q 61 8.2 57.075 9.975 A 17.649 17.649 0 0 0 55.006 11.077 A 13.813 13.813 0 0 0 50.975 14.825 Q 48.8 17.9 48.8 21.85 A 14.517 14.517 0 0 0 48.803 22.161 A 11.88 11.88 0 0 0 50.975 28.925 A 13.229 13.229 0 0 0 53.588 31.669 A 16.267 16.267 0 0 0 57.075 33.75 A 19.472 19.472 0 0 0 61.605 35.116 Z M 66.2 34.4 A 23.047 23.047 0 0 0 70.819 33.956 A 18.467 18.467 0 0 0 74.45 32.825 A 15.413 15.413 0 0 0 78.09 30.65 A 13.249 13.249 0 0 0 80.275 28.4 Q 82.45 25.55 82.45 21.85 A 11.755 11.755 0 0 0 82.451 21.687 A 10.174 10.174 0 0 0 80.35 15.4 A 13.754 13.754 0 0 0 76.267 11.814 A 17.163 17.163 0 0 0 74.525 10.925 Q 70.85 9.3 66.2 9.3 A 23.651 23.651 0 0 0 61.727 9.705 A 18.281 18.281 0 0 0 57.775 10.925 Q 54.1 12.55 52.025 15.375 Q 49.95 18.2 49.9 21.85 A 12.413 12.413 0 0 0 49.899 22.018 A 10.211 10.211 0 0 0 52 28.375 A 13.454 13.454 0 0 0 55.904 31.803 A 17.104 17.104 0 0 0 57.875 32.8 A 19.721 19.721 0 0 0 63.546 34.259 A 24.389 24.389 0 0 0 66.2 34.4 Z M 188.9 16.9 L 188.9 33.9 L 206.75 33.9 A 27.756 27.756 0 0 0 207.48 33.91 Q 210.804 33.91 213.15 33.075 A 9.476 9.476 0 0 0 215.26 32.032 A 7.421 7.421 0 0 0 217.15 30.225 A 7.217 7.217 0 0 0 218.413 27.165 A 9.749 9.749 0 0 0 218.55 25.5 A 9.609 9.609 0 0 0 218.312 23.307 A 7.056 7.056 0 0 0 217.2 20.8 Q 215.85 18.9 213.275 17.9 Q 211.055 17.038 207.998 16.919 A 25.709 25.709 0 0 0 207 16.9 L 188.9 16.9 Z M 188.9 1.1 L 188.9 15.8 L 207.35 15.8 A 17.144 17.144 0 0 0 209.636 15.656 Q 210.811 15.498 211.806 15.166 A 9.434 9.434 0 0 0 212.45 14.925 A 7.654 7.654 0 0 0 214.194 13.929 A 6.148 6.148 0 0 0 215.625 12.375 A 6.641 6.641 0 0 0 216.549 9.998 A 9.118 9.118 0 0 0 216.7 8.3 A 7.432 7.432 0 0 0 216.345 5.945 A 5.955 5.955 0 0 0 214.15 2.975 Q 211.6 1.1 206.9 1.1 L 188.9 1.1 Z M 1.1 35 L 0 35 L 0 0 L 1.1 0 L 1.1 35 Z M 32.55 35 L 31.45 35 L 31.45 0 L 32.55 0 L 32.55 35 Z M 107.65 35 L 106.55 35 L 106.55 0.55 L 107.65 0.55 L 107.65 35 Z M 32 18.3 L 0.55 18.3 L 0.6 17.2 L 32 17.2 L 32 18.3 Z M 118.65 9.85 L 95.9 9.85 L 95.9 8.75 L 118.65 8.75 L 118.65 9.85 Z" vector-effect="non-scaling-stroke"/></g></svg>